<?xml version="1.0" encoding="UTF-8" standalone="no"?>
<!-- Created with Inkscape (http://www.inkscape.org/) -->

<svg
   xmlns:dc="http://purl.org/dc/elements/1.1/"
   xmlns:cc="http://creativecommons.org/ns#"
   xmlns:rdf="http://www.w3.org/1999/02/22-rdf-syntax-ns#"
   xmlns:svg="http://www.w3.org/2000/svg"
   xmlns="http://www.w3.org/2000/svg"
   xmlns:xlink="http://www.w3.org/1999/xlink"
   xmlns:sodipodi="http://sodipodi.sourceforge.net/DTD/sodipodi-0.dtd"
   xmlns:inkscape="http://www.inkscape.org/namespaces/inkscape"
   width="1600px"
   height="1200px"
   id="svg4040"
   version="1.1"
   inkscape:version="0.48.2 r9819"
   sodipodi:docname="New document 6">
  <defs
     id="defs4042">
    <linearGradient
       id="linearGradient3882">
      <stop
         id="stop3890"
         offset="0"
         style="stop-color:#5b3db5;stop-opacity:0.76470588;" />
      <stop
         style="stop-color:#2b1769;stop-opacity:0.89411765;"
         offset="1"
         id="stop3886" />
    </linearGradient>
    <radialGradient
       inkscape:collect="always"
       xlink:href="#linearGradient3882"
       id="radialGradient4278"
       gradientUnits="userSpaceOnUse"
       gradientTransform="matrix(1.1021815e-7,1.5032143,-1.0351571,-1.0791731e-8,1182.0655,-354.22716)"
       spreadMethod="pad"
       cx="682.26453"
       cy="347.91641"
       fx="682.26453"
       fy="347.91641"
       r="251.62642" />
  </defs>
  <sodipodi:namedview
     id="base"
     pagecolor="#ffffff"
     bordercolor="#666666"
     borderopacity="1.0"
     inkscape:pageopacity="0.0"
     inkscape:pageshadow="2"
     inkscape:zoom="0.5"
     inkscape:cx="800"
     inkscape:cy="600"
     inkscape:current-layer="layer1"
     inkscape:document-units="px"
     showgrid="false"
     showguides="true"
     inkscape:guide-bbox="true"
     inkscape:window-width="1089"
     inkscape:window-height="1028"
     inkscape:window-x="587"
     inkscape:window-y="18"
     inkscape:window-maximized="0">
    <sodipodi:guide
       orientation="0,1"
       position="802.94118,120"
       id="guide4195" />
    <sodipodi:guide
       orientation="0,1"
       position="320.58824,1080"
       id="guide4197" />
  </sodipodi:namedview>
  <metadata
     id="metadata4045">
    <rdf:RDF>
      <cc:Work
         rdf:about="">
        <dc:format>image/svg+xml</dc:format>
        <dc:type
           rdf:resource="http://purl.org/dc/dcmitype/StillImage" />
        <dc:title></dc:title>
      </cc:Work>
    </rdf:RDF>
  </metadata>
  <g
     id="layer1"
     inkscape:label="Layer 1"
     inkscape:groupmode="layer">
    <text
       xml:space="preserve"
       style="font-size:192px;font-style:normal;font-variant:normal;font-weight:normal;font-stretch:normal;text-align:center;line-height:125%;letter-spacing:0px;word-spacing:0px;text-anchor:middle;fill:#000000;fill-opacity:1;stroke:none;font-family:Cardo;-inkscape-font-specification:Cardo"
       x="794.04028"
       y="1198.4199"
       id="text3640"
       sodipodi:linespacing="125%"><tspan
         y="1198.4199"
         x="794.04028"
         sodipodi:role="line"
         id="tspan3642" /></text>
    <g
       id="g4453"
       style="font-size:130.76823425px;font-style:normal;font-variant:normal;font-weight:bold;font-stretch:normal;text-align:center;line-height:125%;letter-spacing:0px;word-spacing:0px;text-anchor:middle;opacity:0.5;fill:#000000;fill-opacity:1;stroke:none;font-family:Montserrat;-inkscape-font-specification:Montserrat Bold"
       transform="matrix(-1.1035355,0,0,-0.9061784,654.78394,1894.3448)" />
    <rect
       style="fill:#7a5ada;fill-opacity:1"
       id="rect3870"
       height="1200"
       width="1600"
       x="0"
       y="5.6843419e-14" />
    <rect
       style="fill:url(#radialGradient4278);fill-opacity:1"
       id="rect3896"
       height="1200"
       width="1600"
       x="0"
       y="0" />
    <g
       transform="matrix(1.2740433,0,0,1.2740433,479.41708,120.00002)"
       id="g3919">
      <polygon
         transform="matrix(0.96946458,0,0,0.93132447,-18.53657,-7.7058238)"
         id="polygon65"
         points="434.898,372.167 434.898,427.834 452,427.834 452,341.875 432.491,341.875 409.562,382.625 386.634,341.875 367.125,341.875 367.125,427.834 384.227,427.834 384.227,372.167 409.562,416.625 "
         style="fill:#ffffff" />
      <path
         id="path67"
         d="m 229.14127,374.52743 7.78771,16.21902 h 19.13529 l -38.93273,-80.05572 h -13.85752 l -38.93273,80.05572 h 19.13529 l 7.78771,-16.21902 h 37.87698 z m -31.89344,-13.65135 12.95495,-27.7544 12.95496,27.7544"
         inkscape:connector-curvature="0"
         style="fill:#ffffff" />
      <polygon
         transform="matrix(0.96946458,0,0,0.93132447,-18.53657,-7.7058238)"
         id="polygon69"
         points="313.875,412 313.875,341.875 295.125,341.875 295.125,427.834 353.875,427.834 353.875,412 "
         style="fill:#ffffff" />
      <path
         id="path71"
         d="m 128.24618,376.52606 c -15.92636,0 -28.837689,-11.80361 -28.837689,-26.36394 0,-14.55939 12.911329,-26.363 28.837689,-26.363 9.75767,0 18.37814,4.43497 23.5958,11.21501 l 12.19393,-11.22805 c -8.42853,-9.54607 -21.32628,-15.65742 -35.78973,-15.65742 -25.39318,0 -45.978792,18.81927 -45.978792,42.03346 0,23.2142 20.585612,42.03347 45.978792,42.03347 14.46442,0 27.36217,-6.11135 35.78973,-15.65743 l -12.19393,-11.22804 c -5.21766,6.78097 -13.83717,11.21594 -23.5958,11.21594 z"
         inkscape:connector-curvature="0"
         style="fill:#ffffff" />
    </g>
    <g
       id="g73"
       transform="matrix(1.2854496,0,0,1.2099372,455.36605,86.84429)">
      <polygon
         id="polygon75"
         points="270.875,222 213,222 213,310 270.875,310 270.875,297 229.575,297 229.575,270.875 270.875,270.875 270.875,258 229.575,258 229.575,235 270.875,235 "
         style="fill:#ffffff" />
      <polygon
         id="polygon77"
         points="347,222 289.125,222 289.125,310 347,310 347,297 305.7,297 305.7,270.875 347,270.875 347,258 305.7,258 305.7,235 347,235 "
         style="fill:#ffffff" />
      <polygon
         id="polygon79"
         points="180.375,310 203,310 163.956,265.903 200.875,222 181.875,222 146.825,261.549 146.825,222 130.25,222 130.25,310 146.825,310 146.825,273.41 "
         style="fill:#ffffff" />
      <path
         id="path81"
         d="m 399,222 h -32.75 v 88 H 384 v -28.533 h 15 c 0,0 28,-1.456 28,-30.428 C 427,223.389 399,222 399,222 z m -5.93,46.588 H 384 v -34.594 h 9.07 c 0,0 16.93,0.809 16.93,16.893 0,16.854 -16.93,17.701 -16.93,17.701 z"
         inkscape:connector-curvature="0"
         style="fill:#ffffff" />
    </g>
    <g
       id="g83"
       transform="matrix(1.1990298,0,0,1.1638716,472.992,130.00186)">
      <polygon
         id="polygon85"
         points="288.562,482.564 271.265,456.834 263.016,456.834 263.016,497.778 271.265,497.778 271.265,471.117 288.562,497.778 296.243,497.778 296.243,456.834 288.562,456.834 "
         style="fill:#ffffff" />
      <path
         id="path87"
         d="m 245.06,489.391 3.592,8.277 h 8.827 l -17.961,-40.854 h -6.393 l -17.96,40.854 h 8.827 l 3.593,-8.277 h 17.475 z m -14.713,-6.967 5.975,-14.163 5.978,14.163"
         inkscape:connector-curvature="0"
         style="fill:#ffffff" />
      <path
         id="path89"
         d="m 317.761,497.778 h 8.989 c 0,0 16.78,-2.611 16.78,-20.949 0,-16.912 -16.78,-19.995 -16.78,-19.995 h -19.626 l -0.001,40.944 m 16.073,-8.866 h -6.436 v -23.82 h 6.436 c 0,0 9.971,0.409 10.146,11.633 0.169,10.858 -10.146,12.187 -10.146,12.187 z"
         inkscape:connector-curvature="0"
         style="fill:#ffffff" />
    </g>
    <g
       id="g4476"
       transform="matrix(1.2740433,0,0,1.2740433,476.93179,120.00002)">
      <path
         id="path93"
         d="m 128.65747,690.77425 7.37707,16.5274 h 18.12549 L 117.28037,625.7228 h -13.1264 l -36.878718,81.57885 h 18.12549 l 7.37708,-16.5274 h 35.879648 z m -30.211998,-13.91112 12.271698,-28.28303 12.27169,28.28303"
         inkscape:connector-curvature="0"
         style="fill:#ffffff;fill-opacity:1" />
      <path
         style="fill:#ffffff;fill-opacity:1"
         inkscape:connector-curvature="0"
         d="m 321.15589,690.77425 7.37707,16.5274 h 18.12549 L 309.77879,625.7228 h -13.1264 l -36.87872,81.57885 h 18.12549 l 7.37708,-16.5274 h 35.87965 z m -30.212,-13.91112 12.2717,-28.28303 12.27169,28.28303"
         id="path3618" />
      <polygon
         style="fill:#ffffff;fill-opacity:1"
         points="369.875,651.875 353,651.875 353,708.406 315,651.875 296.875,651.875 296.875,741.834 315,741.834 315,683.26 353,741.834 369.875,741.834 "
         id="polygon3620"
         transform="matrix(0.96111803,0,0,0.95306093,96.846487,2.3674321)" />
      <text
         xml:space="preserve"
         style="font-size:126.31096649px;font-style:normal;font-variant:normal;font-weight:bold;font-stretch:normal;text-align:center;line-height:125%;letter-spacing:0px;word-spacing:0px;text-anchor:middle;fill:#ffffff;fill-opacity:1;stroke:none;font-family:Montserrat;-inkscape-font-specification:Montserrat Bold"
         x="198.37404"
         y="742.95569"
         id="text3636"
         sodipodi:linespacing="125%"
         transform="scale(1.0476051,0.95455817)"><tspan
           sodipodi:role="line"
           x="198.37404"
           y="742.95569"
           style="font-size:126.31096649px;font-weight:bold;fill:#ffffff;fill-opacity:1;-inkscape-font-specification:Montserrat Bold"
           id="tspan3638">G</tspan></text>
      <text
         transform="scale(1.0337102,0.96738912)"
         sodipodi:linespacing="125%"
         id="text3644"
         y="733.4494"
         x="352.52747"
         style="font-size:127.23587036px;font-style:normal;font-variant:normal;font-weight:bold;font-stretch:normal;text-align:center;line-height:125%;letter-spacing:0px;word-spacing:0px;text-anchor:middle;fill:#ffffff;fill-opacity:1;stroke:none;font-family:Montserrat;-inkscape-font-specification:Montserrat Bold"
         xml:space="preserve"><tspan
           id="tspan3646"
           style="font-size:127.23587036px;font-weight:bold;fill:#ffffff;fill-opacity:1;-inkscape-font-specification:Montserrat Bold"
           y="733.4494"
           x="352.52747"
           sodipodi:role="line">I</tspan></text>
    </g>
    <g
       id="g4485"
       transform="matrix(1.2740433,0,0,1.2740433,485.80255,120.00002)">
      <polygon
         transform="matrix(0.96111803,0,0,0.95306093,-24.721369,-125.48416)"
         id="polygon59"
         points="353,708.406 315,651.875 296.875,651.875 296.875,741.834 315,741.834 315,683.26 353,741.834 369.875,741.834 369.875,651.875 353,651.875 "
         style="fill:#ffffff;fill-opacity:1" />
      <path
         id="path95"
         d="m 385.38006,565.48172 c -15.77694,-0.53564 -28.13506,-12.97925 -27.60324,-27.79171 0.53182,-14.81338 13.75319,-26.38702 29.53013,-25.85137 9.66579,0.32785 18.04287,5.13204 22.96503,12.20441 l 12.48917,-11.01306 c -8.00006,-9.99442 -20.55285,-16.64751 -34.88059,-17.13421 -25.15403,-0.85426 -46.23396,17.60151 -47.08202,41.21888 -0.84806,23.61736 18.85674,43.4575 44.01077,44.31084 14.32774,0.4867 27.32783,-5.29643 36.0259,-14.72657 l -11.6696,-11.83408 c -5.41789,6.72328 -14.11881,10.94472 -23.78555,10.61687 z"
         inkscape:connector-curvature="0"
         style="fill:#ffffff;fill-opacity:1" />
      <polygon
         transform="matrix(0.94967459,0,0,0.92352734,-205.31208,6.8621925)"
         id="polygon101"
         points="412.75,531.834 391.917,531.834 427,583.75 427,619.834 445,619.834 445,583.75 480.083,531.834 459.25,531.834 436,569.262 "
         style="fill:#ffffff;fill-opacity:1" />
      <path
         style="font-size:130.76823425px;font-style:normal;font-variant:normal;font-weight:bold;font-stretch:normal;text-align:center;line-height:125%;letter-spacing:0px;word-spacing:0px;text-anchor:middle;fill:#ffffff;fill-opacity:1;stroke:none;font-family:Montserrat;-inkscape-font-specification:Montserrat Bold"
         d="m 121.10733,495.25215 c -11.24078,-0.24798 -22.537978,3.12261 -30.704404,9.50644 -8.259518,6.36481 -9.33752,17.15389 -4.883657,25.354 4.189099,6.9774 13.383353,10.58109 22.015981,12.7778 10.19131,3.31852 21.55792,4.70961 30.41583,10.36176 4.60597,3.49632 0.45405,8.19174 -4.14772,9.74059 -8.78285,4.47649 -21.0082,4.17218 -28.87484,-1.56342 -4.35131,-3.31667 -4.34878,-3.40088 -8.769424,-7.28349 -4.121425,3.68128 -8.242851,7.36255 -12.364276,11.04383 8.08505,8.92667 20.30702,16.40733 34.26611,16.86915 10.16732,0.29495 20.38794,-2.24038 28.42252,-7.41917 7.16365,-4.17152 11.05294,-11.46296 10.30743,-18.61498 -0.036,-6.62215 -4.33785,-13.14601 -11.53179,-16.30541 -6.96125,-3.69447 -14.89793,-5.8041 -22.65323,-8.05589 -7.51309,-1.81994 -15.50491,-3.77974 -21.3302,-8.2339 -3.991908,-3.74671 0.97245,-7.76043 5.16257,-9.31324 8.73833,-4.27204 20.70686,-3.86215 28.44166,1.77126 4.97631,3.44167 5.03628,3.58837 8.76942,7.28349 4.12142,-3.68128 8.24284,-7.36255 12.36427,-11.04382 -8.17438,-9.01638 -20.73532,-16.69349 -34.90625,-16.875 z"
         id="path4458"
         inkscape:connector-curvature="0"
         sodipodi:nodetypes="cccccccccccccccccccc" />
    </g>
    <g
       id="g4728"
       transform="matrix(1.2740433,0,0,1.2740433,313.01277,116.06728)">
      <g
         transform="matrix(0.21913253,0,0,0.21913253,316.15905,20.160639)"
         style="fill:#ffffff;fill-opacity:1;display:inline"
         inkscape:label="back"
         id="layer2">
        <path
           inkscape:connector-curvature="0"
           sodipodi:nodetypes="cscssssssssssscss"
           d="M 25.756851,521.91391 C 25.825031,495.65357 48.148853,458.98977 79.868697,425.68116 101.06675,403.42137 122.59556,383.88231 169.52585,343.86782 137.06358,326.05537 86.575337,304.5643 61.242464,276.41883 51.868932,266.00461 34.879101,242.4107 38.174477,210.88878 44.890902,146.64282 124.18914,49.142619 236.90525,28.529375 c 37.50415,-6.858661 80.56354,-1.907781 116.00271,14.024919 111.18036,49.984243 247.14797,174.162266 263.8771,234.794926 5.88837,21.34165 4.75656,55.36025 -5.39475,74.31982 -12.58141,23.49823 -56.1358,71.22495 -115.72484,120.47315 -93.4994,77.2739 -224.52102,160.24847 -322.35291,174.21052 -31.611,4.51135 -63.90775,-0.19399 -86.572466,-12.98278 C 51.279241,613.36083 39.508186,586.6468 35.370326,578.63961 24.367104,557.34729 25.73287,530.37254 25.756851,521.91391 z M 288.89937,226.87362 c 1.20738,-14.88942 59.59326,-0.0658 55.90415,11.72547 -3.89197,12.43966 -57.28926,5.35537 -55.90415,-11.72547 z"
           style="fill:#ffffff;fill-opacity:1;fill-rule:evenodd;stroke:none"
           id="path2973" />
      </g>
      <g
         transform="matrix(0.21913253,0,0,0.21913253,316.15905,20.160639)"
         style="fill:#7a5ada;fill-opacity:1;display:inline"
         inkscape:label="mid"
         id="layer4">
        <path
           inkscape:connector-curvature="0"
           sodipodi:nodetypes="csssssssccssss"
           d="M 201.12502,319.26488 C 170.40092,345.206 149.97273,362.69737 124.3619,386.10521 62.686019,442.47585 20.779962,485.38384 42.384986,544.03745 67.307886,611.6985 121.94112,608.26771 186.00654,595.69143 351.14346,563.12161 622.59855,354.43165 608.76251,277.34931 597.56708,214.97818 445.90819,90.975251 356.11423,46.84913 328.062,33.063819 295.73224,25.934162 263.30502,27.459889 139.83437,33.287522 43.410732,145.70192 48.3364,206.6102 53.12843,265.866 202.89233,317.49757 201.12502,319.26488 z M 182.59146,112.40184 c -37.15326,41.33629 -13.39873,121.3113 48.21486,164.90276 72.09526,51.00721 188.8443,60.24272 212.0774,20.90556 43.33515,-73.37278 -3.98029,-150.9555 -74.61054,-185.56335 -69.7954,-34.198724 -162.52227,-26.01189 -185.68172,-0.24497 z"
           style="fill:#7a5ada;fill-opacity:1;fill-rule:evenodd;stroke:none"
           id="path2975" />
        <path
           inkscape:connector-curvature="0"
           sodipodi:nodetypes="csssscss"
           d="m 309.29559,275.57053 c 52.15894,7.24994 97.11719,-13.63858 104.1475,-65.14342 5.35537,-39.2337 -54.68938,-82.09994 -90.78995,-91.98681 -30.14631,-8.25614 -95.59547,2.36034 -100.00778,59.37779 -4.58678,59.27202 56.23678,93.52508 86.65023,97.75244 z m -25.54268,-98.581 c -34.27878,53.10396 49.77027,69.43027 62.63837,59.7456 55.47708,-41.75261 -47.53597,-83.14191 -62.63837,-59.7456 z"
           style="fill:#7a5ada;fill-opacity:1;fill-rule:evenodd;stroke:none;display:inline"
           id="path4976" />
      </g>
      <g
         transform="matrix(0.21913253,0,0,0.21913253,316.15905,20.160639)"
         style="fill:#ffffff;fill-opacity:1;display:inline"
         inkscape:label="top"
         id="layer5">
        <path
           inkscape:connector-curvature="0"
           sodipodi:nodetypes="cssssssssssscsscsss"
           id="path2977"
           d="M 253.35285,41.570018 C 192.71898,47.959829 181.10644,55.76371 126.17687,97.322591 107.767,111.25125 73.883463,145.14202 65.201668,185.34831 c -3.306505,15.31275 0.601944,28.53259 11.630184,37.80412 35.312998,29.68796 94.416058,53.77395 142.904478,77.05704 14.20232,6.81964 4.79874,19.18504 -18.10392,39.01252 -57.79173,50.03186 -135.926941,110.93446 -141.3817,157.34203 -2.570415,21.86837 4.916125,51.5832 31.459397,66.7898 31.006723,17.76369 95.372133,6.16955 138.351373,-9.835 62.80599,-23.38762 145.30781,-75.00368 210.80628,-125.74104 68.11013,-52.76042 131.43764,-119.77326 134.57017,-130.70294 3.84668,-13.42147 3.46325,-25.81795 -3.96035,-40.07068 C 559.81983,234.62227 544.23417,217.99109 527.49924,199.37578 482.59667,152.03725 435.087,110.44129 378.2447,78.565883 337.19672,55.547464 301.08129,36.540217 253.35285,41.570018 z m 89.06787,106.129442 c 43.80514,21.17863 88.78971,76.80693 -0.39035,108.8248 -24.25015,8.70642 -101.15792,-21.38222 -98.80358,-62.4438 3.43316,-60.65568 45.70723,-72.24041 99.19393,-46.381 z"
           style="fill:#ffffff;fill-opacity:1;fill-rule:evenodd;stroke:none" />
      </g>
    </g>
  </g>
</svg>
